# xmcd
#
# Track frame offsets:
#	150
#	18941
#	40324
#	55416
#	71819
#	86782
#
# Disc length: 1382 seconds
#
# Revision: 1
# Processed by: cddbd v1.5.2PL0 Copyright (c) Steve Scherf et al.
# Submitted via: audiograbber 1.83.01
#
DISCID=4f056406
DTITLE=Caroline Jones - Chasin' Me
DYEAR=2019
DGENRE=Country
TTITLE0=Chasin' Me
TTITLE1=Tough Guys (Remix)
TTITLE2=All Of The Boys
TTITLE3=God Made Me
TTITLE4=The Line
TTITLE5=Gulf Coast Girl (Feat. Jimmy Buffett, Kenny Chesney, Lukas Nelson and Mac
TTITLE5=McAnally)
EXTD=
EXTT0=
EXTT1=
EXTT2=
EXTT3=
EXTT4=
EXTT5=
PLAYORDER=
